<svg width="9345.696" height="9345.698" viewBox="0 0 2472.715 2472.716" xml:space="preserve" xmlns="http://www.w3.org/2000/svg"><defs><clipPath clipPathUnits="userSpaceOnUse" id="a"><path d="M0 8000h8000V0H0Z"/></clipPath><clipPath clipPathUnits="userSpaceOnUse" id="b"><path d="M762.251 7238.5H7237.75V763.002H762.251Z"/></clipPath><clipPath clipPathUnits="userSpaceOnUse" id="c"><path d="M0 8000h8000V0H0Z"/></clipPath><clipPath clipPathUnits="userSpaceOnUse" id="d"><path d="M1764.98 5966.07h1458.76V3772.5H1764.98Z"/></clipPath><clipPath clipPathUnits="userSpaceOnUse" id="e"><path d="M2768.74 5966.07h2142.65v-455H2768.74Z"/></clipPath><clipPath clipPathUnits="userSpaceOnUse" id="f"><path d="M2387.46 3149.32h676.34v-838.37h-676.34Z"/></clipPath><clipPath clipPathUnits="userSpaceOnUse" id="g"><path d="M2608.8 5966.07h2302.59V2310.95H2608.8Z"/></clipPath><clipPath clipPathUnits="userSpaceOnUse" id="h"><path d="M4776.26 4228.25h1458.76V2034.69H4776.26Z"/></clipPath><clipPath clipPathUnits="userSpaceOnUse" id="i"><path d="M3088.61 2489.69h2142.65v-455H3088.61Z"/></clipPath><clipPath clipPathUnits="userSpaceOnUse" id="j"><path d="M3088.61 5689.8H5391.2V2034.69H3088.61Z"/></clipPath><clipPath clipPathUnits="userSpaceOnUse" id="k"><path d="M4936.2 5689.8h676.34v-838.37H4936.2Z"/></clipPath></defs><g clip-path="url(#a)" transform="matrix(.35278 0 0 -.35278 -174.753 2647.381)"><path d="M0 0c0-1785.259-1447.238-3232.497-3232.497-3232.497-1785.258 0-3232.496 1447.238-3232.496 3232.497 0 1785.259 1447.238 3232.497 3232.496 3232.497C-1447.238 3232.497 0 1785.259 0 0" style="fill:#000;fill-opacity:1;fill-rule:nonzero;stroke:none" transform="matrix(1.08419 0 0 1.08419 7504.636 3999.751)"/><g clip-path="url(#b)" opacity=".8"><path d="M0 0c0-1691.51-1371.239-3062.749-3062.749-3062.749-1691.51 0-3062.749 1371.239-3062.749 3062.749 0 1691.51 1371.239 3062.749 3062.749 3062.749C-1371.239 3062.749 0 1691.51 0 0Z" style="fill:none;stroke:#fff;stroke-width:350;stroke-linecap:round;stroke-linejoin:round;stroke-miterlimit:10;stroke-dasharray:none;stroke-opacity:1" transform="translate(7062.749 4000.751)"/></g></g><g clip-path="url(#c)" transform="matrix(.35278 0 0 -.35278 -174.753 2647.381)"><g clip-path="url(#d)" opacity=".8"><path d="m0 0-1003.761-1738.565" style="fill:none;stroke:#fff;stroke-width:455;stroke-linecap:round;stroke-linejoin:round;stroke-miterlimit:10;stroke-dasharray:none;stroke-opacity:1" transform="translate(2996.239 5738.565)"/></g><g clip-path="url(#e)" opacity=".8"><path d="M0 0h1687.648" style="fill:none;stroke:#fff;stroke-width:455;stroke-linecap:round;stroke-linejoin:round;stroke-miterlimit:10;stroke-dasharray:none;stroke-opacity:1" transform="translate(2996.239 5738.565)"/></g><g clip-path="url(#f)" opacity=".8"><path d="m0 0-221.339 383.37" style="fill:none;stroke:#fff;stroke-width:455;stroke-linecap:round;stroke-linejoin:round;stroke-miterlimit:10;stroke-dasharray:none;stroke-opacity:1" transform="translate(2836.302 2538.454)"/></g><g clip-path="url(#g)" opacity=".8"><path d="m0 0-1847.585-3200.112" style="fill:none;stroke:#fff;stroke-width:455;stroke-linecap:round;stroke-linejoin:round;stroke-miterlimit:10;stroke-dasharray:none;stroke-opacity:1" transform="translate(4683.887 5738.565)"/></g><g clip-path="url(#h)" opacity=".8"><path d="m0 0 1003.761 1738.565" style="fill:none;stroke:#fff;stroke-width:455;stroke-linecap:round;stroke-linejoin:round;stroke-miterlimit:10;stroke-dasharray:none;stroke-opacity:1" transform="translate(5003.761 2262.186)"/></g><g clip-path="url(#i)" opacity=".8"><path d="M0 0h-1687.648" style="fill:none;stroke:#fff;stroke-width:455;stroke-linecap:round;stroke-linejoin:round;stroke-miterlimit:10;stroke-dasharray:none;stroke-opacity:1" transform="translate(5003.761 2262.186)"/></g><g clip-path="url(#j)" opacity=".8"><path d="m0 0 1847.585 3200.112" style="fill:none;stroke:#fff;stroke-width:455;stroke-linecap:round;stroke-linejoin:round;stroke-miterlimit:10;stroke-dasharray:none;stroke-opacity:1" transform="translate(3316.113 2262.186)"/></g><g clip-path="url(#k)" opacity=".8"><path d="m0 0-221.338 383.37" style="fill:none;stroke:#fff;stroke-width:455;stroke-linecap:round;stroke-linejoin:round;stroke-miterlimit:10;stroke-dasharray:none;stroke-opacity:1" transform="translate(5385.037 5078.927)"/></g></g></svg>